<?xml version="1.0" encoding="UTF-8" standalone="no"?>
<!-- Created with Inkscape (http://www.inkscape.org/) -->

<svg
   xmlns:dc="http://purl.org/dc/elements/1.1/"
   xmlns:cc="http://creativecommons.org/ns#"
   xmlns:rdf="http://www.w3.org/1999/02/22-rdf-syntax-ns#"
   xmlns:svg="http://www.w3.org/2000/svg"
   xmlns="http://www.w3.org/2000/svg"
   xmlns:sodipodi="http://sodipodi.sourceforge.net/DTD/sodipodi-0.dtd"
   xmlns:inkscape="http://www.inkscape.org/namespaces/inkscape"
   version="1.1"
   id="svg10"
   width="295.13153"
   height="380.07434"
   viewBox="0 0 295.13153 380.07434"
   sodipodi:docname="logo_d.svg"
   inkscape:version="0.92.4 (5da689c313, 2019-01-14)">
  <metadata
     id="metadata16">
    <rdf:RDF>
      <cc:Work
         rdf:about="">
        <dc:format>image/svg+xml</dc:format>
        <dc:type
           rdf:resource="http://purl.org/dc/dcmitype/StillImage" />
        <dc:title></dc:title>
      </cc:Work>
    </rdf:RDF>
  </metadata>
  <defs
     id="defs14" />
  <sodipodi:namedview
     pagecolor="#ffffff"
     bordercolor="#666666"
     borderopacity="1"
     objecttolerance="10"
     gridtolerance="10"
     guidetolerance="10"
     inkscape:pageopacity="0"
     inkscape:pageshadow="2"
     inkscape:window-width="1920"
     inkscape:window-height="1001"
     id="namedview12"
     showgrid="false"
     fit-margin-top="0"
     fit-margin-left="0"
     fit-margin-right="0"
     fit-margin-bottom="0"
     inkscape:zoom="1.1814768"
     inkscape:cx="220.13335"
     inkscape:cy="148.53614"
     inkscape:window-x="-9"
     inkscape:window-y="-9"
     inkscape:window-maximized="1"
     inkscape:current-layer="svg10" />
  <path
     style="fill:#1f8884;fill-opacity:1"
     d="m 114.05748,373.70504 c 0.3383,-3.5031 1.3242,-16.4943 2.191,-28.8693 0.8668,-12.375 1.86331,-23.0906 2.0068,-23.8124 0.31972,-0.94128 -0.7663,-0.7117 4.7713,-0.6614 2.3874,0.0406 9.3549,0.1496 15.4834,-0.4631 61.7114,-6.1694 101.2537,-58.4468 104.8081,-138.56308 2.0438,-46.06768 -9.2561,-81.494651 -32.2033,-100.962151 -12.6729,-10.75122 -27.9201,-16.22947 -47.9139,-17.21528 -20.2929,-1.00055 -32.272,3.21082 -46.4368,16.3253 -8.0686,7.47023 -13.9058,15.21745 -20.701302,27.474591 -8.8495,15.96232 -15.5937,34.91291 -31.4518,88.37754 -1.7945,6.05 -3.6884,11.5625 -4.2088,12.25 -0.7199,0.95111 -8.1064,1.25 -30.8911,1.25 -28.0380003,0 -29.91390027,-0.11145 -29.45770027,-1.75 C 14.253178,156.08572 31.015878,105.71826 41.903878,81.335759 c 13.4225,-30.05832 33.1502,-53.63807 56.3132,-67.30907 C 114.33588,4.5131787 127.32508,0.94195869 148.70598,0.14537869 c 51.1775,-1.90671999 86.6081,14.87733031 114.3941,54.19038031 21.5138,30.43883 31.9492,69.208161 32.0309,119.000001 0.066,40.1045 -5.8942,73.03368 -19.0946,105.49998 -9.1267,22.4469 -25.0399,46.9083 -39.4665,60.6667 -8.9879,8.5717 -23.5777,18.5259 -36.369,24.8136 -22.5554,11.0872 -37.7186,14.5489 -66.8792,15.268 l -19.8793,0.4903 z"
     id="path62"
     inkscape:connector-curvature="0"
     sodipodi:nodetypes="cscccscsccccscscssccccccc" />
</svg>
