<?xml version="1.0" encoding="UTF-8" standalone="no"?>
<!-- Created with Inkscape (http://www.inkscape.org/) -->

<svg
   xmlns:dc="http://purl.org/dc/elements/1.1/"
   xmlns:cc="http://creativecommons.org/ns#"
   xmlns:rdf="http://www.w3.org/1999/02/22-rdf-syntax-ns#"
   xmlns:svg="http://www.w3.org/2000/svg"
   xmlns="http://www.w3.org/2000/svg"
   xmlns:sodipodi="http://sodipodi.sourceforge.net/DTD/sodipodi-0.dtd"
   xmlns:inkscape="http://www.inkscape.org/namespaces/inkscape"
   version="1.1"
   id="svg10"
   width="295.19376"
   height="380.03055"
   viewBox="0 0 295.19376 380.03055"
   sodipodi:docname="logo_g.svg"
   inkscape:version="0.92.4 (5da689c313, 2019-01-14)">
  <metadata
     id="metadata16">
    <rdf:RDF>
      <cc:Work
         rdf:about="">
        <dc:format>image/svg+xml</dc:format>
        <dc:type
           rdf:resource="http://purl.org/dc/dcmitype/StillImage" />
        <dc:title></dc:title>
      </cc:Work>
    </rdf:RDF>
  </metadata>
  <defs
     id="defs14" />
  <sodipodi:namedview
     pagecolor="#ffffff"
     bordercolor="#666666"
     borderopacity="1"
     objecttolerance="10"
     gridtolerance="10"
     guidetolerance="10"
     inkscape:pageopacity="0"
     inkscape:pageshadow="2"
     inkscape:window-width="1920"
     inkscape:window-height="1001"
     id="namedview12"
     showgrid="false"
     inkscape:zoom="1.1814768"
     inkscape:cx="65.117963"
     inkscape:cy="244.86479"
     inkscape:window-x="-9"
     inkscape:window-y="-9"
     inkscape:window-maximized="1"
     inkscape:current-layer="svg10"
     fit-margin-top="0"
     fit-margin-left="0"
     fit-margin-right="0"
     fit-margin-bottom="0" />
  <path
     style="fill:#1f8884;fill-opacity:1"
     d="M 125.19996,379.83559 C 95.467699,376.43969 76.899469,369.03219 57.199979,352.70779 25.818689,326.70309 7.9368988,289.20169 1.1744488,235.21199 -0.36369125,222.93189 -0.39747125,191.45845 1.1113488,176.42281 7.7396488,110.3707 33.130819,58.129087 72.919159,28.680247 99.372519,9.1011371 127.22916,0.17098709 162.36576,0.00583709 c 9.7162,-0.0457 17.9313,0.182 18.2557,0.50593 0.3244,0.32393001 -0.3127,12.84949991 -1.4158,27.83459991 -1.1031,14.9851 -2.0057,28.10757 -2.0057,29.16104 0,1.73568 -0.7907,1.9154 -8.4276,1.9154 -38.2832,0 -70.562141,17.42068 -91.149031,49.192443 -19.70098,30.40453 -28.71103,74.88605 -24.38461,120.38384 4.30462,45.2687 25.13645,75.6252 57.937041,84.427 28.984,7.7776 50.0192,3.5221 68.1837,-13.794 17.2131,-16.409 29.3801,-40.9715 42.4561,-85.70928 1.9291,-6.6 4.6611,-15.825 6.0712,-20.5 1.41,-4.675 3.2949,-10.975 4.1885,-14 0.8936,-3.025 1.9888,-6.0625 2.4337,-6.75 0.6176,-0.95415 7.8954,-1.25 30.75,-1.25 23.2895,0 29.9396,0.27769 29.9348,1.25 -0.01,1.20295 -2.8238,11.22676 -8.5038,30.25 -1.478,4.95 -3.2595,11.025 -3.9589,13.5 -5.9224,20.95828 -20.6476,62.98588 -28.2047,80.49998 -11.4983,26.648 -30.5506,51.4372 -49.3518,64.2122 -20.3137,13.8027 -34.7551,18.2896 -60.4746,18.7894 -8.8,0.1711 -17.575,0.1311 -19.5,-0.089 z"
     id="path62"
     inkscape:connector-curvature="0"
     sodipodi:nodetypes="ccssscssssssccccscsccccsccc" />
</svg>
