<?xml version="1.0" encoding="UTF-8" standalone="no"?>
<!-- Created with Inkscape (http://www.inkscape.org/) -->

<svg
   xmlns:dc="http://purl.org/dc/elements/1.1/"
   xmlns:cc="http://creativecommons.org/ns#"
   xmlns:rdf="http://www.w3.org/1999/02/22-rdf-syntax-ns#"
   xmlns:svg="http://www.w3.org/2000/svg"
   xmlns="http://www.w3.org/2000/svg"
   xmlns:sodipodi="http://sodipodi.sourceforge.net/DTD/sodipodi-0.dtd"
   xmlns:inkscape="http://www.inkscape.org/namespaces/inkscape"
   version="1.1"
   id="svg10"
   width="448.63062"
   height="380.44351"
   viewBox="0 0 448.63062 380.44351"
   sodipodi:docname="Logo_Portfolio4_Negro.svg"
   inkscape:version="0.92.4 (5da689c313, 2019-01-14)">
  <metadata
     id="metadata16">
    <rdf:RDF>
      <cc:Work
         rdf:about="">
        <dc:format>image/svg+xml</dc:format>
        <dc:type
           rdf:resource="http://purl.org/dc/dcmitype/StillImage" />
        <dc:title></dc:title>
      </cc:Work>
    </rdf:RDF>
  </metadata>
  <defs
     id="defs14" />
  <sodipodi:namedview
     pagecolor="#ffffff"
     bordercolor="#666666"
     borderopacity="1"
     objecttolerance="10"
     gridtolerance="10"
     guidetolerance="10"
     inkscape:pageopacity="0"
     inkscape:pageshadow="2"
     inkscape:window-width="1920"
     inkscape:window-height="1017"
     id="namedview12"
     showgrid="false"
     fit-margin-top="0"
     fit-margin-left="0"
     fit-margin-right="0"
     fit-margin-bottom="0"
     inkscape:zoom="0.83543029"
     inkscape:cx="672.5067"
     inkscape:cy="276.25958"
     inkscape:window-x="-8"
     inkscape:window-y="-8"
     inkscape:window-maximized="1"
     inkscape:current-layer="svg10" />
  <path
     style="fill:#000000"
     d="M 125.19996,380.24854 C 95.467699,376.85264 76.899469,369.44514 57.199979,353.12074 25.818689,327.11604 7.9368988,289.61464 1.1744488,235.62494 -0.36369124,223.34484 -0.39747124,191.8714 1.1113488,176.83576 7.7396488,110.78365 33.130819,58.542039 72.919159,29.093199 99.372519,9.5140887 127.22916,0.58393869 162.36576,0.41878869 c 9.7162,-0.0457 17.9313,0.182 18.2557,0.50593 0.3244,0.32393001 -0.3127,12.84950031 -1.4158,27.83460031 -1.1031,14.9851 -2.0057,28.10757 -2.0057,29.16104 0,1.73568 -0.7907,1.9154 -8.4276,1.9154 -38.2832,0 -70.562141,17.42068 -91.149031,49.192441 -19.70098,30.40453 -28.71103,74.88605 -24.38461,120.38384 4.30462,45.2687 25.13645,75.6252 57.937041,84.427 28.984,7.7776 50.0192,3.5221 68.1837,-13.794 17.2131,-16.409 29.3801,-40.9715 42.4561,-85.70928 1.9291,-6.6 4.6611,-15.825 6.0712,-20.5 1.41,-4.675 3.2949,-10.975 4.1885,-14 0.8936,-3.025 1.9888,-6.0625 2.4337,-6.75 0.6176,-0.95415 7.8954,-1.25 30.75,-1.25 23.2895,0 29.9396,0.27769 29.9348,1.25 -0.01,1.20295 -2.8238,11.22676 -8.5038,30.25 -1.478,4.95 -3.2595,11.025 -3.9589,13.5 -5.9224,20.95828 -20.6476,62.98588 -28.2047,80.49998 -11.4983,26.648 -30.5506,51.4372 -49.3518,64.2122 -20.3137,13.8027 -34.7551,18.2896 -60.4746,18.7894 -8.8,0.1711 -17.575,0.1311 -19.5,-0.089 z m 142.3566,-6.5435 c 0.3383,-3.5031 1.3242,-16.4943 2.191,-28.8693 0.8668,-12.375 1.86331,-23.0906 2.0068,-23.8124 0.31972,-0.94128 -0.7663,-0.7117 4.7713,-0.6614 2.3874,0.0406 9.3549,0.1496 15.4834,-0.4631 61.7114,-6.1694 101.2537,-58.4468 104.8081,-138.56308 2.0438,-46.06768 -9.2561,-81.494651 -32.2033,-100.962151 -12.6729,-10.75122 -27.9201,-16.22947 -47.9139,-17.21528 -20.2929,-1.00055 -32.272,3.21082 -46.4368,16.3253 -8.0686,7.47023 -13.9058,15.21745 -20.7013,27.474591 -8.8495,15.96232 -15.5937,34.91291 -31.4518,88.37754 -1.7945,6.05 -3.6884,11.5625 -4.2088,12.25 -0.7199,0.95111 -8.1064,1.25 -30.8911,1.25 -28.038,0 -29.9139,-0.11145 -29.4577,-1.75 14.1998,-51.00004 30.9625,-101.3675 41.8505,-125.750001 13.4225,-30.05832 33.1502,-53.63807 56.3132,-67.30907 16.1188,-9.5135103 29.108,-13.08473031 50.4889,-13.88131031 51.1775,-1.90671999 86.6081,14.87733031 114.3941,54.19038031 21.5138,30.43883 31.9492,69.208161 32.0309,119.000001 0.066,40.1045 -5.8942,73.03368 -19.0946,105.49998 -9.1267,22.4469 -25.0399,46.9083 -39.4665,60.6667 -8.9879,8.5717 -23.5777,18.5259 -36.369,24.8136 -22.5554,11.0872 -37.7186,14.5489 -66.8792,15.268 l -19.8793,0.4903 z"
     id="path62"
     inkscape:connector-curvature="0"
     sodipodi:nodetypes="ccssscssssssccccscsccccsccccscccscsccccscscssccccccc" />
</svg>
