<?xml version="1.0" encoding="UTF-8" standalone="no"?> <svg width="48" height="48" viewBox="0 0 48 48" fill="none" xmlns="http://www.w3.org/2000/svg">
<path d="M31.63 45.4999C31.7242 45.6636 31.863 45.7973 32.0301 45.8854C32.1972 45.9736 32.3858 46.0126 32.5742 45.9979C32.7625 45.9833 32.9429 45.9156 33.0943 45.8026C33.2458 45.6897 33.3622 45.5362 33.43 45.3599L35 41.3399L39.27 41.9899C39.4567 42.0192 39.6478 41.995 39.8213 41.9202C39.9949 41.8453 40.1436 41.7228 40.2503 41.5669C40.3571 41.4109 40.4175 41.2279 40.4245 41.0391C40.4315 40.8503 40.3849 40.6633 40.29 40.4999L33.476 28.6929L24.876 33.7989L31.63 45.4999Z" fill="#FD3730"/>
<path d="M33.476 28.6929L24.876 33.7989L28.212 39.5769C31.5373 38.8979 34.6472 37.4193 37.273 35.2689L33.476 28.6929Z" fill="#D3241F"/>
<path d="M16.3699 45.4999C16.2756 45.6636 16.1369 45.7973 15.9698 45.8854C15.8027 45.9736 15.6141 46.0126 15.4257 45.9979C15.2374 45.9833 15.057 45.9156 14.9056 45.8026C14.7541 45.6897 14.6377 45.5362 14.5699 45.3599L12.9999 41.3399L8.72991 41.9899C8.54322 42.0192 8.35205 41.995 8.17854 41.9202C8.00503 41.8453 7.85628 41.7228 7.74954 41.5669C7.64279 41.4109 7.58241 41.2279 7.5754 41.0391C7.56838 40.8503 7.61502 40.6633 7.70991 40.4999L14.5239 28.6929L23.1239 33.7989L16.3699 45.4999Z" fill="#FD3730"/>
<path d="M10.729 35.2688C13.3547 37.4193 16.4647 38.8979 19.79 39.5768L23.126 33.7998L14.526 28.6938L10.729 35.2688Z" fill="#D3241F"/>
<path d="M24 36C33.3888 36 41 28.3888 41 19C41 9.61116 33.3888 2 24 2C14.6112 2 7 9.61116 7 19C7 28.3888 14.6112 36 24 36Z" fill="#FAC100"/>
<path d="M23.9999 36C26.2328 36.0027 28.4442 35.5643 30.5071 34.7098C32.5701 33.8554 34.4439 32.6018 36.0209 31.021L11.9789 6.979C9.60132 9.3565 7.98217 12.3856 7.32619 15.6834C6.67021 18.9811 7.00687 22.3993 8.29359 25.5057C9.58031 28.6121 11.7593 31.2671 14.555 33.1351C17.3507 35.0031 20.6376 36.0001 23.9999 36V36Z" fill="#FF9500"/>
<path d="M24 31C30.6274 31 36 25.6274 36 19C36 12.3726 30.6274 7 24 7C17.3726 7 12 12.3726 12 19C12 25.6274 17.3726 31 24 31Z" fill="#FF9500"/>
<path d="M23.9999 31.0001C25.5761 31.0023 27.1371 30.6929 28.5933 30.0896C30.0495 29.4864 31.372 28.6013 32.4849 27.4851L15.5149 10.5151C13.8368 12.1934 12.694 14.3315 12.231 16.6592C11.7681 18.9869 12.0057 21.3996 12.9139 23.5923C13.8221 25.7849 15.3601 27.659 17.3334 28.9776C19.3067 30.2962 21.6266 31 23.9999 31.0001V31.0001Z" fill="#F87600"/>
<path d="M24.0001 24.382L19.4511 26L19.5841 21.174L16.6401 17.348L21.2711 15.982L24.0001 12L26.7291 15.982L31.3601 17.348L28.4161 21.174L28.5491 26L24.0001 24.382Z" fill="#FAC100"/>
<path d="M24.0001 24.3819L28.5491 25.9999L28.4801 23.4799L21.0481 16.0479L16.6401 17.3479L19.5841 21.1739L19.4511 25.9999L24.0001 24.3819Z" fill="#FF9500"/>
<path d="M36.4999 31.9269C39.082 29.4361 40.8608 26.2305 41.6081 22.7216C42.3554 19.2126 42.0371 15.5604 40.694 12.2337C39.351 8.90691 37.0444 6.0574 34.0704 4.05082C31.0964 2.04425 27.5906 0.972168 24.0029 0.972168C20.4153 0.972168 16.9095 2.04425 13.9355 4.05082C10.9615 6.0574 8.65492 8.90691 7.31184 12.2337C5.96877 15.5604 5.65046 19.2126 6.39777 22.7216C7.14507 26.2305 8.92389 29.4361 11.5059 31.9269L6.84294 39.9999C6.65405 40.3244 6.56103 40.6958 6.57466 41.071C6.58829 41.4463 6.70801 41.8099 6.91994 42.1199C7.13266 42.433 7.42946 42.6798 7.77619 42.8318C8.12292 42.9837 8.50551 43.0347 8.87994 42.9789L12.3589 42.4489L13.6409 45.7289C13.7791 46.0813 14.0145 46.3872 14.3197 46.6111C14.6249 46.8351 14.9873 46.9678 15.3649 46.9939C15.4149 46.9939 15.4649 46.9999 15.5119 46.9999C15.8621 47.0006 16.2061 46.9084 16.509 46.7328C16.8119 46.5571 17.0627 46.3042 17.2359 45.9999L22.4769 36.9229C22.9769 36.9649 23.4859 36.9999 23.9999 36.9999C24.5139 36.9999 25.0199 36.9649 25.5229 36.9229L30.7629 45.9999C30.9364 46.3042 31.1874 46.5571 31.4905 46.7327C31.7935 46.9084 32.1377 47.0006 32.4879 46.9999C32.5369 46.9999 32.5879 46.9999 32.6349 46.9939C33.0136 46.9679 33.3771 46.8347 33.683 46.6098C33.9888 46.3849 34.2243 46.0777 34.3619 45.7239L35.6409 42.4489L39.1269 42.9799C39.5004 43.0348 39.8818 42.9833 40.2273 42.8311C40.5728 42.679 40.8683 42.4325 41.0799 42.1199C41.2917 41.8098 41.4113 41.4461 41.4247 41.0709C41.4382 40.6957 41.345 40.3243 41.1559 39.9999L36.4999 31.9269ZM15.4999 44.9999L13.9309 40.9799C13.8484 40.7683 13.6962 40.5912 13.4996 40.4776C13.3029 40.364 13.0735 40.3207 12.8489 40.3549L8.57594 40.9999L13.0479 33.2519C15.1917 34.9133 17.6847 36.0663 20.3389 36.6239L15.4999 44.9999ZM7.99994 18.9999C7.99994 15.8354 8.93832 12.742 10.6964 10.1108C12.4545 7.47959 14.9534 5.42883 17.877 4.21782C20.8006 3.00682 24.0177 2.68997 27.1214 3.30733C30.2251 3.9247 33.076 5.44855 35.3136 7.68619C37.5513 9.92383 39.0751 12.7748 39.6925 15.8785C40.3099 18.9821 39.993 22.1992 38.782 25.1228C37.571 28.0464 35.5202 30.5453 32.8891 32.3034C30.2579 34.0615 27.1644 34.9999 23.9999 34.9999C19.758 34.9949 15.6913 33.3075 12.6918 30.3081C9.69229 27.3086 8.00497 23.2418 7.99994 18.9999V18.9999ZM35.1499 40.3509C34.9254 40.3167 34.696 40.36 34.4993 40.4736C34.3026 40.5872 34.1505 40.7643 34.0679 40.9759L32.4999 44.9999L27.6599 36.6239C30.3146 36.0665 32.8079 34.9135 34.9519 33.2519L39.4199 40.9999L35.1499 40.3509Z" fill="black"/>
<path d="M24 6C21.4288 6 18.9154 6.76244 16.7776 8.1909C14.6398 9.61935 12.9735 11.6497 11.9896 14.0251C11.0056 16.4006 10.7482 19.0144 11.2498 21.5362C11.7514 24.0579 12.9895 26.3743 14.8076 28.1924C16.6257 30.0105 18.9421 31.2486 21.4638 31.7502C23.9856 32.2518 26.5995 31.9944 28.9749 31.0104C31.3503 30.0265 33.3807 28.3603 34.8091 26.2224C36.2376 24.0846 37 21.5712 37 19C36.996 15.5534 35.6251 12.2491 33.188 9.812C30.7509 7.37488 27.4466 6.00397 24 6V6ZM24 30C21.8244 30 19.6977 29.3549 17.8887 28.1462C16.0798 26.9375 14.6699 25.2195 13.8373 23.2095C13.0048 21.1995 12.7869 18.9878 13.2114 16.854C13.6358 14.7202 14.6835 12.7602 16.2218 11.2218C17.7602 9.68345 19.7202 8.6358 21.854 8.21136C23.9878 7.78692 26.1995 8.00476 28.2095 8.83733C30.2195 9.66989 31.9375 11.0798 33.1462 12.8887C34.3549 14.6977 35 16.8244 35 19C34.9966 21.9163 33.8365 24.7122 31.7744 26.7744C29.7122 28.8365 26.9163 29.9966 24 30Z" fill="black"/>
<path d="M32.3121 17.0389C32.2618 16.8844 32.1746 16.7444 32.058 16.6311C31.9414 16.5179 31.799 16.4347 31.6431 16.3889L27.3541 15.1239L24.8251 11.4349C24.7282 11.308 24.6033 11.2052 24.4603 11.1344C24.3172 11.0637 24.1597 11.0269 24.0001 11.0269C23.8404 11.0269 23.6829 11.0637 23.5399 11.1344C23.3968 11.2052 23.2719 11.308 23.1751 11.4349L20.6461 15.1239L16.3571 16.3889C16.2012 16.4348 16.0589 16.518 15.9424 16.6313C15.826 16.7446 15.7389 16.8845 15.6886 17.039C15.6384 17.1935 15.6266 17.358 15.6542 17.5181C15.6818 17.6782 15.748 17.8291 15.8471 17.9579L18.5751 21.4999L18.4521 25.9709C18.4478 26.1332 18.483 26.2941 18.5548 26.4396C18.6265 26.5852 18.7327 26.7112 18.864 26.8065C18.9953 26.9019 19.1479 26.9639 19.3086 26.9872C19.4692 27.0104 19.6331 26.9942 19.7861 26.9399L24.0001 25.4439L28.2141 26.9439C28.367 26.9982 28.5309 27.0144 28.6916 26.9912C28.8522 26.9679 29.0048 26.9059 29.1361 26.8105C29.2674 26.7152 29.3736 26.5892 29.4453 26.4436C29.5171 26.2981 29.5524 26.1372 29.5481 25.9749L29.4251 21.4999L32.1531 17.9559C32.2519 17.8274 32.318 17.6768 32.3457 17.517C32.3734 17.3573 32.3619 17.1932 32.3121 17.0389ZM27.6241 20.5639C27.4831 20.7458 27.41 20.971 27.4171 21.2009L27.5091 24.5689L24.3351 23.4399C24.1184 23.3629 23.8818 23.3629 23.6651 23.4399L20.4911 24.5689L20.5831 21.2009C20.5902 20.971 20.517 20.7458 20.3761 20.5639L18.3221 17.8939L21.5531 16.9409C21.7735 16.8761 21.9649 16.7373 22.0951 16.5479L24.0001 13.7689L25.9051 16.5479C26.0352 16.7373 26.2266 16.8761 26.4471 16.9409L29.6781 17.8939L27.6241 20.5639Z" fill="black"/>
</svg>
